<svg width="32" height="32" viewBox="0 0 32 32" fill="none" xmlns="http://www.w3.org/2000/svg">
<g clip-path="url(#clip0_33_124)">
<rect y="10.6286" width="24.8471" height="6.19563" rx="1" fill="#460FB8"/>
<rect x="6.02353" y="18.5452" width="25.9765" height="6.19563" rx="1" fill="#5100FF"/>
<path d="M16.776 1.976C16.7387 1.584 16.9813 1.23867 17.504 0.939999C18.0453 0.622665 18.5773 0.463998 19.1 0.463998C19.6787 0.463998 19.996 0.659999 20.052 1.052C20.4627 4.03867 20.78 6.60533 21.004 8.752C21.228 10.8987 21.34 13.0267 21.34 15.136C21.34 17.9733 21.116 20.484 20.668 22.668C20.3133 24.404 19.8 25.9627 19.128 27.344C18.456 28.7253 17.532 29.7987 16.356 30.564C15.3853 31.18 14.4053 31.488 13.416 31.488C12.5013 31.488 11.6053 31.2453 10.728 30.76C9.85067 30.2933 9.02933 29.6493 8.264 28.828C8.11467 28.6413 8.04 28.4827 8.04 28.352C8.04 27.9787 8.31067 27.624 8.852 27.288C9.37467 26.9707 9.90667 26.812 10.448 26.812C10.8213 26.812 11.1107 26.9147 11.316 27.12C11.4093 27.2133 11.6333 27.4467 11.988 27.82C12.3427 28.1933 12.7067 28.5107 13.08 28.772C13.472 29.0333 13.8267 29.164 14.144 29.164C14.312 29.164 14.4333 29.1453 14.508 29.108C14.8627 28.9773 15.1707 28.6693 15.432 28.184C15.712 27.6987 15.936 27.2507 16.104 26.84C16.272 26.4293 16.3747 26.1773 16.412 26.084C16.86 24.964 17.1867 23.7787 17.392 22.528C17.5973 21.296 17.7373 19.9147 17.812 18.384C17.8493 17.1893 17.868 16.284 17.868 15.668C17.3827 16.5453 16.8133 17.236 16.16 17.74C15.5067 18.2253 14.7133 18.468 13.78 18.468C12.4547 18.468 11.5867 17.88 11.176 16.704C10.784 15.5093 10.5787 14.0533 10.56 12.336L10.532 11.216C10.532 8.304 10.8307 5.56933 11.428 3.012C11.5027 2.65733 11.82 2.34 12.38 2.06C12.94 1.78 13.472 1.64 13.976 1.64C14.2373 1.64 14.4427 1.696 14.592 1.808C14.7413 1.92 14.7973 2.07867 14.76 2.284C14.3307 4.44933 14.06 6.792 13.948 9.312C13.9107 10.096 13.892 10.7027 13.892 11.132C13.892 11.8413 13.9387 12.6347 14.032 13.512C14.144 14.296 14.2747 14.856 14.424 15.192L14.648 15.64C14.7787 15.3973 14.956 15.0333 15.18 14.548C15.6467 13.3533 16.02 11.916 16.3 10.236L16.552 8.864C16.9067 7.20267 17.084 5.88667 17.084 4.916C17.084 4.43067 17.0653 4.06667 17.028 3.824L16.776 1.976Z" fill="white"/>
</g>
<defs>
<clipPath id="clip0_33_124">
<rect width="32" height="32" fill="white"/>
</clipPath>
</defs>
</svg>
