<svg width="147" height="57" viewBox="0 0 147 57" fill="none" xmlns="http://www.w3.org/2000/svg">
<path d="M38.096 28.976C39.44 32.672 40.112 35.768 40.112 38.264C40.112 41.048 39.368 43.664 37.88 46.112C36.44 48.464 34.496 50.48 32.048 52.16C29.648 53.84 26.984 55.112 24.056 55.976C21.8 56.648 19.376 56.984 16.784 56.984C14 56.984 11.336 56.6 8.79202 55.832C6.29602 55.064 4.25602 53.888 2.67202 52.304C1.08802 50.672 0.296021 48.68 0.296021 46.328C0.296021 44.984 0.58402 43.496 1.16002 41.864C1.59202 40.52 2.24002 39.2 3.10402 37.904C3.96802 36.56 4.92802 35.888 5.98402 35.888C6.99202 35.888 7.49602 36.296 7.49602 37.112C7.49602 37.448 7.40002 37.88 7.20802 38.408C7.01602 38.888 6.89602 39.2 6.84802 39.344C6.80002 39.488 6.70402 39.728 6.56002 40.064C6.41602 40.4 6.34402 40.688 6.34402 40.928C6.24802 42.368 6.77602 43.664 7.92802 44.816C9.08002 45.92 10.496 46.832 12.176 47.552C13.856 48.224 15.392 48.68 16.784 48.92C18.224 49.208 19.76 49.352 21.392 49.352C23.456 49.352 25.424 49.088 27.296 48.56C29.168 48.032 30.776 47.216 32.12 46.112C33.368 45.056 33.992 43.688 33.992 42.008C33.992 41.048 33.824 40.064 33.488 39.056C33.2 38.048 32.768 36.776 32.192 35.24C31.616 33.992 31.184 32.792 30.896 31.64C29.36 33.896 27.776 35.768 26.144 37.256C24.512 38.744 22.736 39.488 20.816 39.488C19.232 39.488 17.816 38.888 16.568 37.688C15.368 36.488 14.384 35.048 13.616 33.368C12.464 30.728 11.888 27.704 11.888 24.296C11.888 20.504 12.56 16.304 13.904 11.696C12.704 11.696 11.792 11.432 11.168 10.904C10.592 10.328 10.304 9.55999 10.304 8.59999C10.304 7.68799 10.544 6.72799 11.024 5.71999C11.6 4.42399 12.632 3.31999 14.12 2.40799C15.656 1.44799 17.168 0.967987 18.656 0.967987C20.288 0.967987 21.536 1.54399 22.4 2.69599C22.832 3.27199 23.048 4.03999 23.048 4.99999C23.048 5.81599 22.928 6.65599 22.688 7.51999C22.448 8.38399 22.088 9.55999 21.608 11.048C21.128 12.392 20.816 13.4 20.672 14.072C20.336 16.088 20.168 17.912 20.168 19.544C20.168 22.664 20.768 25.136 21.968 26.96C22.64 27.968 23.336 28.472 24.056 28.472C24.92 28.472 25.76 27.896 26.576 26.744C27.44 25.544 28.112 24.224 28.592 22.784C28.832 22.064 28.952 21.2 28.952 20.192C28.952 19.664 28.904 18.824 28.808 17.672C28.712 16.616 28.664 15.8 28.664 15.224C28.664 13.256 29.192 11.624 30.248 10.328C31.352 9.03199 32.312 8.38399 33.128 8.38399C34.088 8.38399 34.808 9.03199 35.288 10.328C35.768 11.576 36.176 13.16 36.512 15.08C36.656 15.848 36.728 16.592 36.728 17.312C36.728 17.936 36.68 18.824 36.584 19.976C36.44 20.888 36.368 21.848 36.368 22.856C36.368 24.104 36.776 25.688 37.592 27.608L38.096 28.976Z" fill="black"/>
<path d="M58.1643 34.592L57.5883 36.032L62.6283 40.28L62.1243 38.192C61.7883 36.848 61.1163 33.992 60.1083 29.624L58.1643 34.592ZM66.3723 13.568C67.0443 17.744 67.8843 21.992 68.8923 26.312C69.9483 30.584 71.2203 35.504 72.7083 41.072C74.1003 46.352 75.0123 49.856 75.4443 51.584C75.4923 51.728 75.5163 51.944 75.5163 52.232C75.5163 53.384 74.8683 54.392 73.5723 55.256C72.2763 56.072 70.9323 56.48 69.5403 56.48C68.3883 56.48 67.5003 56.168 66.8763 55.544C65.4843 54.056 64.0203 52.64 62.4843 51.296C60.9483 49.952 58.9323 48.296 56.4363 46.328L54.0603 44.384C52.0443 48.704 50.4843 51.896 49.3803 53.96C49.0443 54.68 48.1563 55.352 46.7163 55.976C45.3243 56.552 44.0283 56.84 42.8283 56.84C41.4843 56.84 40.8123 56.408 40.8123 55.544C40.8123 55.304 40.8843 55.016 41.0283 54.68C42.4683 51.128 44.1723 47.048 46.1403 42.44L47.6523 38.768C46.4523 37.568 45.8523 36.968 45.8523 36.968C45.5163 36.632 45.3483 36.248 45.3483 35.816C45.3483 35 45.8763 34.232 46.9323 33.512C47.9883 32.744 49.1643 32.24 50.4603 32C52.7643 26.48 54.9243 20.864 56.9403 15.152C57.1323 14.48 57.7323 13.904 58.7403 13.424C59.7963 12.896 60.9003 12.56 62.0523 12.416C62.8683 12.176 63.5643 12.056 64.1403 12.056C65.4843 12.056 66.2283 12.56 66.3723 13.568Z" fill="black"/>
<path d="M111.47 31.136C111.518 31.184 111.542 31.256 111.542 31.352C111.878 34.376 112.046 37.64 112.046 41.144C112.046 45.032 111.806 48.752 111.326 52.304C111.182 53.264 110.438 54.128 109.094 54.896C107.75 55.616 106.43 55.976 105.134 55.976C104.366 55.976 103.766 55.832 103.334 55.544C102.902 55.208 102.71 54.704 102.758 54.032C103.238 49.616 103.478 45.704 103.478 42.296C101.99 46.088 99.9736 49.304 97.4296 51.944C94.8856 54.536 91.9336 55.832 88.5736 55.832C87.8536 55.832 87.1336 55.76 86.4136 55.616C83.2936 55.088 81.0616 53.672 79.7176 51.368C78.3736 49.016 77.7016 46.136 77.7016 42.728C77.7016 39.368 78.2536 35.72 79.3576 31.784C80.2216 28.808 81.4936 25.952 83.1736 23.216C84.9016 20.432 86.9896 18.152 89.4376 16.376C91.8856 14.6 94.5736 13.712 97.5016 13.712C99.9977 13.712 101.822 14.192 102.974 15.152C104.126 16.112 104.702 17.384 104.702 18.968C104.702 20.936 103.982 23.12 102.542 25.52C101.102 27.872 99.5657 29.672 97.9336 30.92C97.4536 31.256 96.8056 31.544 95.9896 31.784C95.1736 31.976 94.3816 32.072 93.6136 32.072C92.7496 32.072 92.0536 31.952 91.5257 31.712C90.9977 31.472 90.7336 31.136 90.7336 30.704C90.7336 30.08 91.2136 29.36 92.1736 28.544C92.7976 28.016 93.6376 26.888 94.6936 25.16C95.7977 23.384 96.3496 21.992 96.3496 20.984C96.3496 20.072 95.8456 19.616 94.8376 19.616C93.3976 19.616 91.6936 21.776 89.7256 26.096C88.6216 28.256 87.8056 30.608 87.2776 33.152C86.6057 36.224 86.2696 39.056 86.2696 41.648C86.2696 46.304 87.5416 48.872 90.0856 49.352C91.0937 49.496 92.0776 48.752 93.0376 47.12C94.0456 45.44 94.9096 43.472 95.6296 41.216C95.0056 41.552 94.0696 42.008 92.8216 42.584C92.0536 42.92 91.2136 43.088 90.3016 43.088C89.3416 43.088 88.6217 42.848 88.1416 42.368C87.8536 41.984 87.7096 41.624 87.7096 41.288C87.7096 40.856 87.8297 40.448 88.0696 40.064C88.3577 39.632 88.6936 39.296 89.0776 39.056C95.1736 34.88 100.982 31.544 106.502 29.048C106.934 28.856 107.462 28.76 108.086 28.76C109.046 28.76 109.886 29 110.606 29.48C111.326 29.912 111.614 30.464 111.47 31.136Z" fill="black"/>
<path d="M136.025 41.072C137.129 38.48 137.681 35.816 137.681 33.08C137.681 30.92 137.297 28.952 136.529 27.176C135.809 25.352 134.657 23.864 133.073 22.712C132.017 21.944 131.009 21.56 130.049 21.56C129.665 21.56 129.185 21.656 128.609 21.848C129.041 22.04 129.257 22.376 129.257 22.856C129.257 23.144 129.161 23.48 128.969 23.864C127.865 25.976 127.001 28.28 126.377 30.776C125.753 33.224 125.441 35.696 125.441 38.192C125.441 41.072 125.873 43.808 126.737 46.4C127.313 47.84 127.913 48.968 128.537 49.784C128.825 50.12 129.113 50.36 129.401 50.504C130.793 49.544 132.041 48.2 133.145 46.472C134.297 44.744 135.257 42.944 136.025 41.072ZM135.017 15.8C137.369 16.28 139.385 17.312 141.065 18.896C142.745 20.48 144.017 22.4 144.881 24.656C145.745 26.864 146.177 29.168 146.177 31.568C146.177 34.4 145.625 37.304 144.521 40.28C143.417 43.256 141.905 45.992 139.985 48.488C138.065 50.984 135.929 52.952 133.577 54.392C131.369 55.736 129.209 56.408 127.097 56.408C124.985 56.408 123.137 55.76 121.553 54.464C119.969 53.168 118.817 51.296 118.097 48.848C117.281 46.352 116.873 43.544 116.873 40.424C116.873 38.552 117.017 36.728 117.305 34.952C116.969 35.048 116.465 35.096 115.793 35.096C114.161 35.096 113.345 34.544 113.345 33.44C113.345 33.056 113.393 32.744 113.489 32.504C115.121 27.944 117.569 23.984 120.833 20.624C124.145 17.216 127.937 15.512 132.209 15.512C132.833 15.512 133.769 15.608 135.017 15.8Z" fill="black"/>
</svg>
