<svg width="376" height="66" viewBox="0 0 376 66" fill="none" xmlns="http://www.w3.org/2000/svg">
<path d="M38.096 32.976C39.44 36.672 40.112 39.768 40.112 42.264C40.112 45.048 39.368 47.664 37.88 50.112C36.44 52.464 34.496 54.48 32.048 56.16C29.648 57.84 26.984 59.112 24.056 59.976C21.8 60.648 19.376 60.984 16.784 60.984C14 60.984 11.336 60.6 8.79202 59.832C6.29602 59.064 4.25602 57.888 2.67202 56.304C1.08802 54.672 0.296021 52.68 0.296021 50.328C0.296021 48.984 0.58402 47.496 1.16002 45.864C1.59202 44.52 2.24002 43.2 3.10402 41.904C3.96802 40.56 4.92802 39.888 5.98402 39.888C6.99202 39.888 7.49602 40.296 7.49602 41.112C7.49602 41.448 7.40002 41.88 7.20802 42.408C7.01602 42.888 6.89602 43.2 6.84802 43.344C6.80002 43.488 6.70402 43.728 6.56002 44.064C6.41602 44.4 6.34402 44.688 6.34402 44.928C6.24802 46.368 6.77602 47.664 7.92802 48.816C9.08002 49.92 10.496 50.832 12.176 51.552C13.856 52.224 15.392 52.68 16.784 52.92C18.224 53.208 19.76 53.352 21.392 53.352C23.456 53.352 25.424 53.088 27.296 52.56C29.168 52.032 30.776 51.216 32.12 50.112C33.368 49.056 33.992 47.688 33.992 46.008C33.992 45.048 33.824 44.064 33.488 43.056C33.2 42.048 32.768 40.776 32.192 39.24C31.616 37.992 31.184 36.792 30.896 35.64C29.36 37.896 27.776 39.768 26.144 41.256C24.512 42.744 22.736 43.488 20.816 43.488C19.232 43.488 17.816 42.888 16.568 41.688C15.368 40.488 14.384 39.048 13.616 37.368C12.464 34.728 11.888 31.704 11.888 28.296C11.888 24.504 12.56 20.304 13.904 15.696C12.704 15.696 11.792 15.432 11.168 14.904C10.592 14.328 10.304 13.56 10.304 12.6C10.304 11.688 10.544 10.728 11.024 9.72001C11.6 8.424 12.632 7.32 14.12 6.40801C15.656 5.448 17.168 4.968 18.656 4.968C20.288 4.968 21.536 5.544 22.4 6.696C22.832 7.272 23.048 8.04 23.048 9C23.048 9.816 22.928 10.656 22.688 11.52C22.448 12.384 22.088 13.56 21.608 15.048C21.128 16.392 20.816 17.4 20.672 18.072C20.336 20.088 20.168 21.912 20.168 23.544C20.168 26.664 20.768 29.136 21.968 30.96C22.64 31.968 23.336 32.472 24.056 32.472C24.92 32.472 25.76 31.896 26.576 30.744C27.44 29.544 28.112 28.224 28.592 26.784C28.832 26.064 28.952 25.2 28.952 24.192C28.952 23.664 28.904 22.824 28.808 21.672C28.712 20.616 28.664 19.8 28.664 19.224C28.664 17.256 29.192 15.624 30.248 14.328C31.352 13.032 32.312 12.384 33.128 12.384C34.088 12.384 34.808 13.032 35.288 14.328C35.768 15.576 36.176 17.16 36.512 19.08C36.656 19.848 36.728 20.592 36.728 21.312C36.728 21.936 36.68 22.824 36.584 23.976C36.44 24.888 36.368 25.848 36.368 26.856C36.368 28.104 36.776 29.688 37.592 31.608L38.096 32.976Z" fill="black"/>
<path d="M58.1643 38.592L57.5883 40.032L62.6283 44.28L62.1243 42.192C61.7883 40.848 61.1163 37.992 60.1083 33.624L58.1643 38.592ZM66.3723 17.568C67.0443 21.744 67.8843 25.992 68.8923 30.312C69.9483 34.584 71.2203 39.504 72.7083 45.072C74.1003 50.352 75.0123 53.856 75.4443 55.584C75.4923 55.728 75.5163 55.944 75.5163 56.232C75.5163 57.384 74.8683 58.392 73.5723 59.256C72.2763 60.072 70.9323 60.48 69.5403 60.48C68.3883 60.48 67.5003 60.168 66.8763 59.544C65.4843 58.056 64.0203 56.64 62.4843 55.296C60.9483 53.952 58.9323 52.296 56.4363 50.328L54.0603 48.384C52.0443 52.704 50.4843 55.896 49.3803 57.96C49.0443 58.68 48.1563 59.352 46.7163 59.976C45.3243 60.552 44.0283 60.84 42.8283 60.84C41.4843 60.84 40.8123 60.408 40.8123 59.544C40.8123 59.304 40.8843 59.016 41.0283 58.68C42.4683 55.128 44.1723 51.048 46.1403 46.44L47.6523 42.768C46.4523 41.568 45.8523 40.968 45.8523 40.968C45.5163 40.632 45.3483 40.248 45.3483 39.816C45.3483 39 45.8763 38.232 46.9323 37.512C47.9883 36.744 49.1643 36.24 50.4603 36C52.7643 30.48 54.9243 24.864 56.9403 19.152C57.1323 18.48 57.7323 17.904 58.7403 17.424C59.7963 16.896 60.9003 16.56 62.0523 16.416C62.8683 16.176 63.5643 16.056 64.1403 16.056C65.4843 16.056 66.2283 16.56 66.3723 17.568Z" fill="black"/>
<path d="M111.47 35.136C111.518 35.184 111.542 35.256 111.542 35.352C111.878 38.376 112.046 41.64 112.046 45.144C112.046 49.032 111.806 52.752 111.326 56.304C111.182 57.264 110.438 58.128 109.094 58.896C107.75 59.616 106.43 59.976 105.134 59.976C104.366 59.976 103.766 59.832 103.334 59.544C102.902 59.208 102.71 58.704 102.758 58.032C103.238 53.616 103.478 49.704 103.478 46.296C101.99 50.088 99.9736 53.304 97.4296 55.944C94.8856 58.536 91.9336 59.832 88.5736 59.832C87.8536 59.832 87.1336 59.76 86.4136 59.616C83.2936 59.088 81.0616 57.672 79.7176 55.368C78.3736 53.016 77.7016 50.136 77.7016 46.728C77.7016 43.368 78.2536 39.72 79.3576 35.784C80.2216 32.808 81.4936 29.952 83.1736 27.216C84.9016 24.432 86.9896 22.152 89.4376 20.376C91.8856 18.6 94.5736 17.712 97.5016 17.712C99.9976 17.712 101.822 18.192 102.974 19.152C104.126 20.112 104.702 21.384 104.702 22.968C104.702 24.936 103.982 27.12 102.542 29.52C101.102 31.872 99.5656 33.672 97.9336 34.92C97.4536 35.256 96.8056 35.544 95.9896 35.784C95.1736 35.976 94.3816 36.072 93.6136 36.072C92.7496 36.072 92.0536 35.952 91.5257 35.712C90.9976 35.472 90.7336 35.136 90.7336 34.704C90.7336 34.08 91.2136 33.36 92.1736 32.544C92.7976 32.016 93.6376 30.888 94.6936 29.16C95.7976 27.384 96.3496 25.992 96.3496 24.984C96.3496 24.072 95.8456 23.616 94.8376 23.616C93.3976 23.616 91.6936 25.776 89.7256 30.096C88.6216 32.256 87.8056 34.608 87.2776 37.152C86.6056 40.224 86.2696 43.056 86.2696 45.648C86.2696 50.304 87.5416 52.872 90.0856 53.352C91.0936 53.496 92.0776 52.752 93.0376 51.12C94.0456 49.44 94.9096 47.472 95.6296 45.216C95.0056 45.552 94.0696 46.008 92.8216 46.584C92.0536 46.92 91.2136 47.088 90.3016 47.088C89.3416 47.088 88.6216 46.848 88.1416 46.368C87.8536 45.984 87.7096 45.624 87.7096 45.288C87.7096 44.856 87.8296 44.448 88.0696 44.064C88.3576 43.632 88.6936 43.296 89.0776 43.056C95.1736 38.88 100.982 35.544 106.502 33.048C106.934 32.856 107.462 32.76 108.086 32.76C109.046 32.76 109.886 33 110.606 33.48C111.326 33.912 111.614 34.464 111.47 35.136Z" fill="black"/>
<path d="M136.025 45.072C137.129 42.48 137.681 39.816 137.681 37.08C137.681 34.92 137.297 32.952 136.529 31.176C135.809 29.352 134.657 27.864 133.073 26.712C132.017 25.944 131.009 25.56 130.049 25.56C129.665 25.56 129.185 25.656 128.609 25.848C129.041 26.04 129.257 26.376 129.257 26.856C129.257 27.144 129.161 27.48 128.969 27.864C127.865 29.976 127.001 32.28 126.377 34.776C125.753 37.224 125.441 39.696 125.441 42.192C125.441 45.072 125.873 47.808 126.737 50.4C127.313 51.84 127.913 52.968 128.537 53.784C128.825 54.12 129.113 54.36 129.401 54.504C130.793 53.544 132.041 52.2 133.145 50.472C134.297 48.744 135.257 46.944 136.025 45.072ZM135.017 19.8C137.369 20.28 139.385 21.312 141.065 22.896C142.745 24.48 144.017 26.4 144.881 28.656C145.745 30.864 146.177 33.168 146.177 35.568C146.177 38.4 145.625 41.304 144.521 44.28C143.417 47.256 141.905 49.992 139.985 52.488C138.065 54.984 135.929 56.952 133.577 58.392C131.369 59.736 129.209 60.408 127.097 60.408C124.985 60.408 123.137 59.76 121.553 58.464C119.969 57.168 118.817 55.296 118.097 52.848C117.281 50.352 116.873 47.544 116.873 44.424C116.873 42.552 117.017 40.728 117.305 38.952C116.969 39.048 116.465 39.096 115.793 39.096C114.161 39.096 113.345 38.544 113.345 37.44C113.345 37.056 113.393 36.744 113.489 36.504C115.121 31.944 117.569 27.984 120.833 24.624C124.145 21.216 127.937 19.512 132.209 19.512C132.833 19.512 133.769 19.608 135.017 19.8Z" fill="black"/>
<path d="M210.685 33.552C211.165 32.4 211.405 31.32 211.405 30.312C211.405 27.192 209.029 25.632 204.277 25.632C202.069 25.632 199.669 25.968 197.077 26.64C194.533 27.264 192.517 27.96 191.029 28.728C188.437 30.024 186.517 31.296 185.269 32.544C184.069 33.744 183.445 35.448 183.397 37.656C183.349 41.016 183.253 43.968 183.109 46.512C182.965 49.008 182.701 51.48 182.317 53.928C188.125 51.768 193.501 49.032 198.445 45.72C201.709 43.56 204.349 41.592 206.365 39.816C208.381 37.992 209.821 35.904 210.685 33.552ZM184.261 17.928C184.261 18.648 184.213 19.824 184.117 21.456C184.021 22.416 183.973 23.184 183.973 23.76L187.069 19.728C188.797 17.472 190.117 15.72 191.029 14.472C191.941 13.176 192.781 11.784 193.549 10.296C191.869 10.68 190.381 11.112 189.085 11.592C187.789 12.024 186.613 12.6 185.557 13.32C184.981 13.752 184.573 14.112 184.333 14.4C184.141 14.688 184.045 15 184.045 15.336C184.045 15.624 184.069 16.008 184.117 16.488C184.213 16.968 184.261 17.448 184.261 17.928ZM211.549 15.984C214.141 16.416 216.037 17.424 217.237 19.008C218.485 20.592 219.109 22.56 219.109 24.912C219.109 26.64 218.749 28.656 218.029 30.96C216.157 36.864 211.885 42.744 205.213 48.6C199.981 53.064 194.173 56.928 187.789 60.192C185.725 61.296 183.373 62.4 180.733 63.504C178.093 64.608 175.837 65.16 173.965 65.16C172.525 65.16 171.565 64.728 171.085 63.864C170.893 63.528 170.797 63.144 170.797 62.712C170.797 62.136 170.941 61.608 171.229 61.128C171.517 60.6 171.973 59.88 172.597 58.968C173.317 58.008 173.773 57.288 173.965 56.808C174.397 55.56 174.613 53.832 174.613 51.624V49.896C174.613 49.512 174.589 49.056 174.541 48.528C174.541 48 174.565 47.424 174.613 46.8C174.997 41.616 175.261 37.728 175.405 35.136C175.405 34.464 175.429 33.888 175.477 33.408C175.525 32.88 175.573 32.424 175.621 32.04C175.669 31.56 175.717 30.96 175.765 30.24C175.813 29.52 175.837 28.68 175.837 27.72C175.837 26.712 175.765 25.752 175.621 24.84C175.429 23.592 175.141 22.656 174.757 22.032C174.709 21.888 174.469 21.624 174.037 21.24C173.653 20.808 173.437 20.496 173.389 20.304C173.341 20.112 173.317 19.848 173.317 19.512C173.317 17.928 174.229 15.696 176.053 12.816C176.581 12 177.109 11.304 177.637 10.728C178.165 10.152 178.741 9.744 179.365 9.504C179.557 9.408 179.869 9.36 180.301 9.36C180.445 9.36 180.637 9.36 180.877 9.36C181.165 9.36 181.381 9.336 181.525 9.288C182.053 9.096 182.581 8.736 183.109 8.208C183.685 7.68 184.021 7.368 184.117 7.272C184.645 6.744 185.149 6.312 185.629 5.976C187.165 4.872 189.181 3.72 191.677 2.52C194.173 1.32 196.309 0.720001 198.085 0.720001C199.813 0.720001 200.917 1.416 201.397 2.808C201.589 3.336 201.685 3.912 201.685 4.536C201.685 6.36 201.061 8.352 199.813 10.512C198.565 12.624 196.933 15 194.917 17.64C194.629 18.072 194.149 18.744 193.477 19.656C198.661 17.016 203.557 15.696 208.165 15.696C209.413 15.696 210.541 15.792 211.549 15.984Z" fill="black"/>
<path d="M230.992 38.592L230.416 40.032L235.456 44.28L234.952 42.192C234.616 40.848 233.944 37.992 232.936 33.624L230.992 38.592ZM239.2 17.568C239.872 21.744 240.712 25.992 241.72 30.312C242.776 34.584 244.048 39.504 245.536 45.072C246.928 50.352 247.84 53.856 248.272 55.584C248.32 55.728 248.344 55.944 248.344 56.232C248.344 57.384 247.696 58.392 246.4 59.256C245.104 60.072 243.76 60.48 242.368 60.48C241.216 60.48 240.328 60.168 239.704 59.544C238.312 58.056 236.848 56.64 235.312 55.296C233.776 53.952 231.76 52.296 229.264 50.328L226.888 48.384C224.872 52.704 223.312 55.896 222.208 57.96C221.872 58.68 220.984 59.352 219.544 59.976C218.152 60.552 216.856 60.84 215.656 60.84C214.312 60.84 213.64 60.408 213.64 59.544C213.64 59.304 213.712 59.016 213.856 58.68C215.296 55.128 217 51.048 218.968 46.44L220.48 42.768C219.28 41.568 218.68 40.968 218.68 40.968C218.344 40.632 218.176 40.248 218.176 39.816C218.176 39 218.704 38.232 219.76 37.512C220.816 36.744 221.992 36.24 223.288 36C225.592 30.48 227.752 24.864 229.768 19.152C229.96 18.48 230.56 17.904 231.568 17.424C232.624 16.896 233.728 16.56 234.88 16.416C235.696 16.176 236.392 16.056 236.968 16.056C238.312 16.056 239.056 16.56 239.2 17.568Z" fill="black"/>
<path d="M268.867 17.568C269.875 17.472 270.643 17.592 271.171 17.928C271.747 18.264 272.347 18.912 272.971 19.872C273.355 20.496 273.547 21.024 273.547 21.456C273.547 22.512 272.875 23.136 271.531 23.328L269.011 23.616C266.659 23.952 265.411 24.12 265.267 24.12C264.451 31.8 263.803 38.472 263.323 44.136C262.843 49.8 262.531 55.392 262.387 60.912C262.339 61.584 262.051 62.088 261.523 62.424C261.043 62.76 260.395 62.928 259.579 62.928C258.139 62.928 256.699 62.544 255.259 61.776C253.867 60.96 253.195 60.048 253.243 59.04C253.387 53.952 253.675 48.768 254.107 43.488C254.539 38.16 255.115 31.992 255.835 24.984L251.299 25.56C250.627 25.608 250.099 25.584 249.715 25.488C249.379 25.344 249.043 25.056 248.707 24.624C248.371 24.192 248.035 23.712 247.699 23.184C247.315 22.656 247.123 22.128 247.123 21.6C247.123 21.168 247.291 20.784 247.627 20.448C247.963 20.112 248.467 19.896 249.139 19.8C250.195 19.656 251.419 19.488 252.811 19.296L256.483 18.792L257.779 6.336C257.923 4.992 258.907 4.32 260.731 4.32C262.171 4.32 263.563 4.728 264.907 5.544C266.299 6.312 266.947 7.2 266.851 8.208L265.915 17.856C267.259 17.76 268.243 17.664 268.867 17.568Z" fill="black"/>
<path d="M275.791 21.744C275.839 20.784 276.535 19.944 277.879 19.224C279.223 18.456 280.567 18.072 281.911 18.072C282.679 18.072 283.303 18.24 283.783 18.576C284.263 18.864 284.479 19.344 284.431 20.016L282.343 59.112C282.295 60.12 281.599 61.008 280.255 61.776C278.911 62.496 277.567 62.856 276.223 62.856C274.447 62.856 273.583 62.16 273.631 60.768L275.791 21.744ZM275.647 12.24C275.551 12.912 275.719 13.416 276.151 13.752C276.631 14.088 277.255 14.256 278.023 14.256C279.319 14.256 280.639 13.896 281.983 13.176C283.327 12.456 284.071 11.592 284.215 10.584C284.599 8.184 284.863 6.384 285.007 5.184C285.199 3.984 284.455 3.384 282.775 3.384C281.479 3.384 280.135 3.744 278.743 4.464C277.351 5.184 276.607 6 276.511 6.912L275.647 12.24Z" fill="black"/>
<path d="M312.36 29.016C311.448 28.248 309.864 27.24 307.608 25.992C305.4 24.696 303.696 24.048 302.496 24.048C301.536 24.048 301.056 24.528 301.056 25.488C301.056 25.824 301.176 26.4 301.416 27.216C301.752 28.32 302.496 29.376 303.648 30.384C304.8 31.344 306.312 32.472 308.184 33.768C309.72 34.824 310.704 35.544 311.136 35.928C313.248 37.752 314.928 39.288 316.176 40.536C317.424 41.736 318.552 43.176 319.56 44.856C320.616 46.488 321.144 48.168 321.144 49.896C321.144 51.048 320.856 52.248 320.28 53.496C319.176 55.752 317.352 57.48 314.808 58.68C312.312 59.88 309.648 60.48 306.816 60.48C305.856 60.48 304.896 60.408 303.936 60.264C297.408 59.16 291.384 54.816 285.864 47.232C285.576 46.8 285.432 46.368 285.432 45.936C285.432 44.88 286.128 43.92 287.52 43.056C288.96 42.144 290.376 41.688 291.768 41.688C292.824 41.688 293.592 42 294.072 42.624C297.048 46.656 299.976 49.608 302.856 51.48C305.496 53.208 307.728 54.072 309.552 54.072C311.04 54.072 311.784 53.424 311.784 52.128C311.784 51.216 311.424 50.088 310.704 48.744C309.984 47.448 309.048 46.224 307.896 45.072C306.744 43.92 305.28 42.6 303.504 41.112L301.56 39.456C301.368 39.264 300.48 38.568 298.896 37.368C297.6 36.408 296.496 35.52 295.584 34.704C294.672 33.888 293.904 33 293.28 32.04C292.464 30.744 292.056 29.4 292.056 28.008C292.056 25.848 292.968 23.88 294.792 22.104C296.664 20.28 298.8 19.032 301.2 18.36C302.736 17.928 304.2 17.712 305.592 17.712C308.184 17.712 310.68 18.312 313.08 19.512C315.528 20.712 318 22.368 320.496 24.48C320.928 24.816 321.144 25.224 321.144 25.704C321.144 26.616 320.4 27.504 318.912 28.368C317.424 29.232 315.96 29.664 314.52 29.664C313.56 29.664 312.84 29.448 312.36 29.016Z" fill="black"/>
<path d="M342.695 17.568C343.703 17.472 344.471 17.592 344.999 17.928C345.575 18.264 346.175 18.912 346.799 19.872C347.183 20.496 347.375 21.024 347.375 21.456C347.375 22.512 346.703 23.136 345.359 23.328L342.839 23.616C340.487 23.952 339.239 24.12 339.095 24.12C338.279 31.8 337.631 38.472 337.151 44.136C336.671 49.8 336.359 55.392 336.215 60.912C336.167 61.584 335.879 62.088 335.351 62.424C334.871 62.76 334.223 62.928 333.407 62.928C331.967 62.928 330.527 62.544 329.087 61.776C327.695 60.96 327.023 60.048 327.071 59.04C327.215 53.952 327.503 48.768 327.935 43.488C328.367 38.16 328.943 31.992 329.663 24.984L325.127 25.56C324.455 25.608 323.927 25.584 323.543 25.488C323.207 25.344 322.871 25.056 322.535 24.624C322.199 24.192 321.863 23.712 321.527 23.184C321.143 22.656 320.951 22.128 320.951 21.6C320.951 21.168 321.119 20.784 321.455 20.448C321.791 20.112 322.295 19.896 322.967 19.8C324.023 19.656 325.247 19.488 326.639 19.296L330.311 18.792L331.607 6.336C331.751 4.992 332.735 4.32 334.559 4.32C335.999 4.32 337.391 4.728 338.735 5.544C340.127 6.312 340.775 7.2 340.679 8.208L339.743 17.856C341.087 17.76 342.071 17.664 342.695 17.568Z" fill="black"/>
<path d="M358.328 38.592L357.752 40.032L362.792 44.28L362.288 42.192C361.952 40.848 361.28 37.992 360.272 33.624L358.328 38.592ZM366.536 17.568C367.208 21.744 368.048 25.992 369.056 30.312C370.112 34.584 371.384 39.504 372.872 45.072C374.264 50.352 375.176 53.856 375.608 55.584C375.656 55.728 375.68 55.944 375.68 56.232C375.68 57.384 375.032 58.392 373.736 59.256C372.44 60.072 371.096 60.48 369.704 60.48C368.552 60.48 367.664 60.168 367.04 59.544C365.648 58.056 364.184 56.64 362.648 55.296C361.112 53.952 359.096 52.296 356.6 50.328L354.224 48.384C352.208 52.704 350.648 55.896 349.544 57.96C349.208 58.68 348.32 59.352 346.88 59.976C345.488 60.552 344.192 60.84 342.992 60.84C341.648 60.84 340.976 60.408 340.976 59.544C340.976 59.304 341.048 59.016 341.192 58.68C342.632 55.128 344.336 51.048 346.304 46.44L347.816 42.768C346.616 41.568 346.016 40.968 346.016 40.968C345.68 40.632 345.512 40.248 345.512 39.816C345.512 39 346.04 38.232 347.096 37.512C348.152 36.744 349.328 36.24 350.624 36C352.928 30.48 355.088 24.864 357.104 19.152C357.296 18.48 357.896 17.904 358.904 17.424C359.96 16.896 361.064 16.56 362.216 16.416C363.032 16.176 363.728 16.056 364.304 16.056C365.648 16.056 366.392 16.56 366.536 17.568Z" fill="black"/>
</svg>
